<?xml version="1.0" encoding="UTF-8"?>
<svg version="1.1" xmlns="http://www.w3.org/2000/svg" width="512" height="512">
<path d="M0 0 C0.96154999 0.00087616 1.92309998 0.00175232 2.91378784 0.00265503 C67.90509948 0.19700824 130.0447792 24.96116779 176.75 70.375 C177.38679688 70.98601562 178.02359375 71.59703125 178.6796875 72.2265625 C187.86091792 81.05602164 196.22701667 90.09465819 203.75 100.375 C204.39509521 101.24487549 204.39509521 101.24487549 205.05322266 102.13232422 C230.09936367 135.9721532 246.28665898 174.75512869 252.75 216.375 C252.86714355 217.0870459 252.98428711 217.7990918 253.10498047 218.53271484 C257.14577265 244.02032674 256.13374758 272.05204931 251.75 297.375 C251.51651855 298.75872803 251.51651855 298.75872803 251.27832031 300.17041016 C245.41800278 333.54848616 232.31281308 367.56607217 212.75 395.375 C212.21375 396.13989746 211.6775 396.90479492 211.125 397.69287109 C204.20216015 407.48413091 197.01357614 416.67963339 188.75 425.375 C187.53427491 426.7644001 186.32537389 428.15981591 185.125 429.5625 C179.13174852 436.41989472 172.68809498 442.40970128 165.578125 448.1015625 C163.77615055 449.55011102 161.99248128 451.02194922 160.234375 452.5234375 C146.71038825 464.01467778 131.46698663 473.2161596 115.75 481.375 C115.07710938 481.7251416 114.40421875 482.0752832 113.7109375 482.43603516 C78.91775043 500.26754353 40.00648913 508.59174537 1.0625 508.625 C-0.01556915 508.62601212 -0.01556915 508.62601212 -1.11541748 508.62704468 C-36.34505206 508.57499747 -70.12692455 500.76101338 -102.43359375 486.9375 C-103.33621445 486.56034348 -104.23883514 486.18318695 -105.16880798 485.79460144 C-108.25 484.375 -108.25 484.375 -110.95657349 482.66064453 C-119.04304677 477.88296555 -124.28187855 478.15652982 -133.12999153 480.38290405 C-135.86504649 481.12223912 -138.58586975 481.90407886 -141.30859375 482.6875 C-143.26059884 483.21408899 -145.21367768 483.73671177 -147.16773987 484.25561523 C-152.31480763 485.63357692 -157.44595429 487.06356259 -162.57537842 488.50561523 C-167.65592226 489.92488736 -172.7491139 491.29693004 -177.84179688 492.671875 C-185.80531685 494.82751754 -193.76208511 497.00636678 -201.71435547 499.203125 C-211.95054625 502.02803613 -222.1989348 504.80439332 -232.46403694 507.52243042 C-234.12047375 507.96157467 -235.77642411 508.40255842 -237.43185234 508.8454895 C-239.69296306 509.45009203 -241.95566819 510.04828336 -244.21899414 510.64453125 C-245.48731583 510.98073486 -246.75563751 511.31693848 -248.06239319 511.66333008 C-251.25 512.375 -251.25 512.375 -255.25 512.375 C-253.96626647 505.5206173 -252.38075461 498.80869122 -250.53198242 492.08618164 C-250.13394157 490.62284393 -250.13394157 490.62284393 -249.7278595 489.12994385 C-248.85686156 485.93081813 -247.98116357 482.73299916 -247.10546875 479.53515625 C-246.49222117 477.28576661 -245.8792965 475.03628892 -245.26667786 472.78672791 C-243.65548718 466.87333853 -242.04042173 460.96101473 -240.42437744 455.0489502 C-237.84816907 445.62138824 -235.27827535 436.19210237 -232.70760536 426.7630291 C-231.53466078 422.46325147 -230.35926049 418.16414628 -229.18404007 413.86499023 C-228.37707487 410.90493657 -227.57622977 407.94328106 -226.77622986 404.9813385 C-225.77077813 401.26338913 -224.73539157 397.55573644 -223.67701721 393.8525238 C-223.19896258 392.1412948 -222.72100619 390.43003835 -222.24316406 388.71875 C-222.01665256 387.95113877 -221.79014105 387.18352755 -221.55676556 386.39265537 C-220.34685411 381.99595053 -220.04868166 379.08281102 -221.81640625 374.83984375 C-222.76231119 373.2970903 -223.76374254 371.78726511 -224.8125 370.3125 C-225.88128757 368.56243945 -226.93676256 366.80419597 -227.98046875 365.0390625 C-228.52751465 364.12930664 -229.07456055 363.21955078 -229.63818359 362.28222656 C-257.42264169 312.16751481 -260.32601988 242.68359672 -245.25 188.375 C-236.96614541 160.60538643 -226.30254237 134.04355607 -209.25 110.375 C-208.81606934 109.77268555 -208.38213867 109.17037109 -207.93505859 108.54980469 C-193.63844078 88.82390526 -177.62887523 70.28400328 -158.25 55.375 C-157.29480469 54.60285156 -156.33960938 53.83070312 -155.35546875 53.03515625 C-111.42565038 18.05707445 -55.878407 -0.12514016 0 0 Z M-131.25 90.375 C-129.67953906 94.15572578 -127.32286298 96.55069989 -124.44363213 99.42746353 C-123.70066292 100.17389427 -123.70066292 100.17389427 -122.94268423 100.93540442 C-121.27452256 102.60887814 -119.59929725 104.27509717 -117.92404175 105.94146729 C-116.71744655 107.1489343 -115.51129082 108.35684058 -114.3055383 109.56514907 C-110.98528583 112.88988371 -107.65881221 116.20833301 -104.33131576 119.52581549 C-100.74624811 123.10226348 -97.16694429 126.68447156 -93.58694458 130.26599121 C-87.38167299 136.47231259 -81.17274377 142.67495536 -74.96133041 148.8751297 C-65.98062393 157.83959692 -57.0054311 166.80956762 -48.03158368 175.78090045 C-33.4727179 190.33538666 -18.90938939 204.88539894 -4.34326172 219.43261719 C9.8081666 233.5656935 23.95749732 247.70086439 38.10400391 261.83886719 C38.97568117 262.710019 39.84735843 263.58117082 40.74545015 264.47872117 C45.11829206 268.84895305 49.49109268 273.21922624 53.86387277 277.58951998 C90.15284818 313.85775472 126.44906352 350.11873738 162.75 386.375 C165.98804065 385.29565312 166.40032617 384.86988551 168.28125 382.2265625 C168.99414185 381.22822388 168.99414185 381.22822388 169.72143555 380.2097168 C170.22586182 379.48051025 170.73028809 378.75130371 171.25 378 C171.77827393 377.24050049 172.30654785 376.48100098 172.85083008 375.69848633 C188.7089682 352.55321809 200.12207081 327.57653615 206.5 300.25 C206.69883789 299.40453613 206.89767578 298.55907227 207.10253906 297.68798828 C210.27888835 283.34538195 211.16057777 269.13612011 211.125 254.5 C211.12445618 253.65149475 211.12391235 252.8029895 211.12335205 251.92877197 C210.96466478 197.76563328 189.85672038 146.73593271 152.17773438 107.84960938 C150.78949414 106.4157908 149.4179068 104.96590719 148.046875 103.515625 C111.76493766 65.96063723 59.48352263 45.23508171 7.75 43.375 C6.68523437 43.33375 5.62046875 43.2925 4.5234375 43.25 C-44.97745035 42.30487565 -92.84142159 59.46398655 -131.25 90.375 Z M-165.25 125.375 C-195.36941878 159.89458078 -209.79505019 208.3050518 -209.5625 253.5 C-209.56034485 254.26124176 -209.5581897 255.02248352 -209.55596924 255.80679321 C-209.39469133 291.50188167 -200.93765088 329.95143332 -181.16015625 360.21875 C-180.38816895 361.40682251 -180.38816895 361.40682251 -179.60058594 362.61889648 C-178.60510061 364.11955111 -177.58235924 365.60262179 -176.52832031 367.06274414 C-173.18164952 372.05972277 -173.18164952 372.05972277 -173.35719299 375.43772888 C-173.52750534 376.17813919 -173.69781769 376.9185495 -173.87329102 377.68139648 C-174.07454086 378.56194199 -174.27579071 379.44248749 -174.48313904 380.34971619 C-175.86001387 385.7815185 -177.30081512 391.19358309 -178.79498672 396.59410095 C-179.39480875 398.76210947 -179.99036188 400.93125326 -180.58493042 403.10070801 C-181.63091784 406.91464722 -182.68055313 410.72757079 -183.73144531 414.54016113 C-185.4208303 420.66930884 -187.10720366 426.79927441 -188.78860092 432.93061829 C-189.37585139 435.06840922 -189.96628325 437.20530434 -190.55691528 439.34216309 C-190.91454602 440.64408654 -191.27204635 441.94604583 -191.62939453 443.24804688 C-191.94313019 444.38592651 -192.25686584 445.52380615 -192.58010864 446.69616699 C-193.33086601 449.23815525 -193.33086601 449.23815525 -193.25 451.375 C-183.23507536 449.15588979 -173.31706861 446.62546643 -163.41395569 443.95160675 C-161.41050028 443.41099314 -159.40645941 442.8726054 -157.40222168 442.3348999 C-156.04027914 441.9693755 -154.67834069 441.60383584 -153.31640625 441.23828125 C-152.6358744 441.0556284 -151.95534256 440.87297554 -151.25418854 440.68478775 C-147.75259035 439.74380851 -144.25268192 438.79713116 -140.75537109 437.84033203 C-137.32227832 436.90155892 -133.88541876 435.97795983 -130.44553375 435.06440353 C-128.52102985 434.54888134 -126.60087224 434.01722068 -124.68084717 433.48526001 C-123.51482971 433.17768768 -122.34881226 432.87011536 -121.14746094 432.55322266 C-120.12618103 432.27660797 -119.10490112 431.99999329 -118.05267334 431.71499634 C-113.23279121 431.1302895 -109.72304024 433.57538653 -105.65234375 435.9140625 C-72.87661757 454.45905875 -37.74511532 464.59442121 0 464.625 C0.75155365 464.62567474 1.5031073 464.62634949 2.2774353 464.62704468 C14.97140353 464.6090185 27.27043096 463.85542627 39.75 461.375 C40.61834473 461.20339355 41.48668945 461.03178711 42.38134766 460.85498047 C74.8299991 454.21330478 103.47044451 440.42188125 129.75 420.375 C124.27507164 413.71431391 118.19792678 407.68312447 112.10160828 401.59962463 C110.90898873 400.4058519 109.71658711 399.21186142 108.52438384 398.01767296 C105.25846211 394.74758552 101.98943956 391.48061354 98.71988428 388.21415961 C95.19053398 384.68707428 91.66406534 381.15710979 88.13722229 377.6275177 C81.23361712 370.71946844 74.32731433 363.81412223 67.42003693 356.90974499 C61.80956032 351.30152664 56.20006039 345.69233315 50.5912571 340.08244133 C49.39395353 338.88490792 49.39395353 338.88490792 48.17246202 337.66318191 C46.55101872 336.04141889 44.92957766 334.41965362 43.30813882 332.79788613 C28.10998581 317.59688259 12.90877073 302.39894414 -2.29349443 287.20205324 C-15.35047836 274.14954211 -28.40483096 261.09440407 -41.45727539 248.03735352 C-56.60905718 232.88022729 -71.76245064 217.72471537 -86.91844243 202.57179874 C-88.53240903 200.9581507 -90.14637353 199.34450057 -91.76033592 197.73084831 C-92.55448904 196.93684947 -93.34864216 196.14285063 -94.16686052 195.32479121 C-99.77590967 189.71660723 -105.38379402 184.10726011 -110.99123573 178.49746895 C-117.81570573 171.67020243 -124.64193804 164.84470397 -131.47047768 158.02150775 C-134.95738916 154.53723449 -138.4434776 151.05214779 -141.92742538 147.56491089 C-145.11091009 144.37846602 -148.29665821 141.19430316 -151.48429837 138.01201545 C-152.64247409 136.85496506 -153.79979049 135.69705382 -154.95619992 134.53823812 C-156.51716059 132.97427648 -158.08110818 131.41336718 -159.64590931 129.85324955 C-160.51715279 128.98216842 -161.38839628 128.11108729 -162.28604108 127.21360976 C-163.92328949 125.26109562 -163.92328949 125.26109562 -165.25 125.375 Z " fill="#27D045" transform="translate(256.25,-0.375)"/>
</svg>
